<svg xmlns="http://www.w3.org/2000/svg" width="24" height="24" viewBox="0 0 24 24"><rect width="24" height="24" fill="none"/><g transform="translate(2.182 1.091)"><path d="M1307.673,715.832h-5.454v2.182h5.454a1.091,1.091,0,0,1,1.091,1.091V732.2a1.074,1.074,0,0,1-.243.655l-6.3-7.2v9.818h5.454a3.273,3.273,0,0,0,3.273-3.273V719.1A3.273,3.273,0,0,0,1307.673,715.832Z" transform="translate(-1291.309 -714.741)" fill="#ff8065"/><path d="M1299.854,715.923h-4.364a3.282,3.282,0,0,0-3.273,3.273v13.091a3.273,3.273,0,0,0,3.273,3.273h4.364v1.091h2.182V714.832h-2.182Zm0,17.455h-4.364a1.117,1.117,0,0,1-.862-.414l5.225-7.222Z" transform="translate(-1292.218 -714.832)" fill="#ff8065"/></g></svg>