<svg xmlns="http://www.w3.org/2000/svg" width="24" height="24" viewBox="0 0 24 24"><rect width="24" height="24" fill="none"/><g transform="translate(3.5 2.75)"><g transform="translate(10.37 0)"><g transform="translate(0 0)"><path d="M294.966,4.76l-4.6-4.6a.542.542,0,0,0-.767,0L287.153,2.6a.542.542,0,0,0,0,.767l4.6,4.6a.542.542,0,0,0,.767,0l2.445-2.445A.542.542,0,0,0,294.966,4.76Z" transform="translate(-286.994 0)" fill="#ff8065"/></g></g><g transform="translate(0 4.116)"><path d="M14.363,118.516l-4.6-4.6c-.007-.007-.011-.015-.018-.022l-5.187,2.593a.543.543,0,0,0-.261.284L0,127.511l6.59-6.59a1.608,1.608,0,0,1-.163-.7,1.627,1.627,0,1,1,1.627,1.627,1.608,1.608,0,0,1-.7-.163l-6.59,6.59,10.741-4.3a.543.543,0,0,0,.284-.261l2.593-5.187C14.378,118.527,14.37,118.522,14.363,118.516Z" transform="translate(0 -113.893)" fill="#ff8065"/></g><g transform="translate(7.511 9.905)"><path d="M208.416,274.114a.542.542,0,1,0,.542.542A.543.543,0,0,0,208.416,274.114Z" transform="translate(-207.874 -274.114)" fill="#ff8065"/></g></g></svg>