<svg xmlns="http://www.w3.org/2000/svg" xmlns:xlink="http://www.w3.org/1999/xlink" width="24" height="24" viewBox="0 0 24 24"><defs><clipPath id="b"><rect width="24" height="24"/></clipPath></defs><g id="a" clip-path="url(#b)"><rect width="24" height="24" fill="none"/><g transform="translate(71.829 918.802)"><path d="M-53.074-906.99a5.382,5.382,0,0,1-.286.611,4.791,4.791,0,0,1-.349.611c-.027.051-.066.089-.092.141a10.5,10.5,0,0,0-2.091,4.94l-7.61-.012a10.439,10.439,0,0,0-2.1-4.954,6.971,6.971,0,0,1-1.223-3.92,7.065,7.065,0,0,1,7.119-7.009h.023c.17,0,.338,0,.507.012a6.671,6.671,0,0,1,.733.089l.22.038c.157.039.326.077.482.122a1.229,1.229,0,0,0-.17.2,5.525,5.525,0,0,0-1.129,3.359,5.812,5.812,0,0,0,5.7,5.732l.142.026Z" fill="#4aabff"/><path d="M-63.307-899.469h7.283v1.223A2.288,2.288,0,0,1-58.1-895.8h-3.123a2.287,2.287,0,0,1-2.077-2.444Z" fill="#4aabff"/><path d="M-54.8-917.8h2.75v4.889H-54.8Z" fill="#4aabff"/><path d="M-52.051-910.621a1.378,1.378,0,0,1-.715,1.21,1.393,1.393,0,0,1-.632.165h-.028l-.205-.042a1.33,1.33,0,0,1-1.06-.856,1.191,1.191,0,0,1-.11-.481,1.612,1.612,0,0,1,.1-.44A1.358,1.358,0,0,1-53.426-912a1.343,1.343,0,0,1,.413.068A1.344,1.344,0,0,1-52.051-910.621Z" fill="#4aabff"/></g></g></svg>