<svg xmlns="http://www.w3.org/2000/svg" width="32" height="32" viewBox="0 0 32 32"><rect width="32" height="32" fill="none"/><g transform="translate(1 1)"><path d="M15,30A15,15,0,0,1,4.393,4.393,15,15,0,1,1,25.607,25.606,14.9,14.9,0,0,1,15,30Zm.021-23.181A3.887,3.887,0,0,0,11.957,7.88a2.572,2.572,0,0,0-.583,1.876v1.889l-.007.007a1.162,1.162,0,0,0-.119.132.838.838,0,0,0-.107.174.96.96,0,0,0-.1.417v1.312a.963.963,0,0,0,.461.82v.006a6.523,6.523,0,0,0,1.21,2.438v1.2a1.206,1.206,0,0,1-.63,1.035s-.5.273-1.105.6l-.255.139c-.9.49-1.917,1.046-1.982,1.1-.011,0-1.062.432-1.062,2.16H22.323a2.171,2.171,0,0,0-1.049-2.153.021.021,0,0,0-.014-.007c-.068-.052-1.37-.7-2.465-1.243l-1.076-.535a1.2,1.2,0,0,1-.68-1.063V16.951a3.9,3.9,0,0,0,.3-.382,7.041,7.041,0,0,0,.553-.91,6.361,6.361,0,0,0,.432-1.049.884.884,0,0,0,.234-.111.033.033,0,0,0,.021-.01.074.074,0,0,1,.015-.01.961.961,0,0,0,.432-.806V12.361a.965.965,0,0,0-.049-.312c-.007-.021-.016-.042-.025-.063s-.018-.042-.025-.063l-.113-.167a.878.878,0,0,0-.121-.125V9.756a2.579,2.579,0,0,0-.6-1.875A3.912,3.912,0,0,0,15.021,6.818Z" fill="#ff8065" stroke="rgba(0,0,0,0)" stroke-miterlimit="10" stroke-width="1"/></g></svg>