<svg xmlns="http://www.w3.org/2000/svg" width="24" height="24" viewBox="0 0 24 24"><rect width="20" height="20" fill="none"/><rect width="24" height="24" fill="none"/><path d="M-546.693,94.656l-7.346-12.483a2.215,2.215,0,0,0-.8-.807,2.259,2.259,0,0,0-3.092.807l-7.336,12.483a2.182,2.182,0,0,0-.317,1.143,2.254,2.254,0,0,0,2.257,2.257h14.682a2.266,2.266,0,0,0,1.143-.307A2.259,2.259,0,0,0-546.693,94.656Zm-8.421-7.97-.23,5.185h-1.287l-.24-5.185Zm-.874,7.8a.935.935,0,0,1-.922-.922.93.93,0,0,1,.922-.931.938.938,0,0,1,.931.931A.943.943,0,0,1-555.987,94.484Z" transform="translate(567.981 -77.556)" fill="#ff6060"/></svg>