<svg xmlns="http://www.w3.org/2000/svg" xmlns:xlink="http://www.w3.org/1999/xlink" width="56" height="56" viewBox="0 0 56 56"><defs><linearGradient id="a" x1="1" x2="0" y2="1" gradientUnits="objectBoundingBox"><stop offset="0" stop-color="#53c87e"/><stop offset="1" stop-color="#0a8994"/></linearGradient><filter id="b" x="15.182" y="15.182" width="26.182" height="28.182" filterUnits="userSpaceOnUse"><feOffset dy="2" input="SourceAlpha"/><feGaussianBlur result="c"/><feFlood flood-opacity="0.102"/><feComposite operator="in" in2="c"/><feComposite in="SourceGraphic"/></filter><linearGradient id="d" x1="0.5" x2="0.5" y2="1" gradientUnits="objectBoundingBox"><stop offset="0" stop-opacity="0.2"/><stop offset="1" stop-color="#fff" stop-opacity="0"/></linearGradient></defs><path d="M8,0H56a0,0,0,0,1,0,0V56a0,0,0,0,1,0,0H8a8,8,0,0,1-8-8V8A8,8,0,0,1,8,0Z" fill="url(#a)"/><g transform="translate(13 13)"><rect width="31" height="31" fill="none"/><g transform="matrix(1, 0, 0, 1, -13, -13)" filter="url(#b)"><path d="M1072.444-848.472a13.091,13.091,0,0,0-13.091,13.091,13.084,13.084,0,0,0,13.091,13.091,13.091,13.091,0,0,0,13.091-13.091A13.1,13.1,0,0,0,1072.444-848.472Zm7.141,18.446h-8.331v2.975l-5.951-4.165,5.951-4.165v2.975h8.331Zm-5.95-5.355v-2.975H1065.3v-2.38h8.331v-2.975l5.95,4.165Z" transform="translate(-1044.17 863.65)" fill="#fff"/></g></g><path d="M13471,1390v-56l-56,56Z" transform="translate(-13415 -1334)" fill="url(#d)"/></svg>