<svg xmlns="http://www.w3.org/2000/svg" xmlns:xlink="http://www.w3.org/1999/xlink" width="56" height="56" viewBox="0 0 56 56"><defs><linearGradient id="a" x1="1" x2="0" y2="1" gradientUnits="objectBoundingBox"><stop offset="0" stop-color="#4aabff"/><stop offset="1" stop-color="#6b47ff"/></linearGradient><filter id="b" x="26.422" y="18.937" width="12.199" height="14.2" filterUnits="userSpaceOnUse"><feOffset dy="2" input="SourceAlpha"/><feGaussianBlur result="c"/><feFlood flood-opacity="0.161"/><feComposite operator="in" in2="c"/><feComposite in="SourceGraphic"/></filter><filter id="d" x="22.16" y="32.112" width="3.288" height="5.288" filterUnits="userSpaceOnUse"><feOffset dy="2" input="SourceAlpha"/><feGaussianBlur result="e"/><feFlood flood-opacity="0.161"/><feComposite operator="in" in2="e"/><feComposite in="SourceGraphic"/></filter><filter id="f" x="18.938" y="19.834" width="8.956" height="11.753" filterUnits="userSpaceOnUse"><feOffset dy="2" input="SourceAlpha"/><feGaussianBlur result="g"/><feFlood flood-opacity="0.161"/><feComposite operator="in" in2="g"/><feComposite in="SourceGraphic"/></filter><filter id="h" x="27.972" y="29.664" width="9.753" height="10.957" filterUnits="userSpaceOnUse"><feOffset dy="2" input="SourceAlpha"/><feGaussianBlur result="i"/><feFlood flood-opacity="0.161"/><feComposite operator="in" in2="i"/><feComposite in="SourceGraphic"/></filter><linearGradient id="j" x1="0.5" x2="0.5" y2="1" gradientUnits="objectBoundingBox"><stop offset="0" stop-opacity="0.2"/><stop offset="1" stop-color="#fff" stop-opacity="0"/></linearGradient></defs><g transform="translate(0 -0.5)"><g transform="translate(0 0.5)"><path d="M8,0H56a0,0,0,0,1,0,0V56a0,0,0,0,1,0,0H8a8,8,0,0,1-8-8V8A8,8,0,0,1,8,0Z" fill="url(#a)"/></g><g transform="translate(15 15.5)"><rect width="28" height="28" fill="none"/><g transform="translate(3.938 3.937)"><g transform="matrix(1, 0, 0, 1, -18.94, -18.94)" filter="url(#b)"><path d="M756.7-76.088h-6.2a1.644,1.644,0,0,0-1.644,1.644A1.644,1.644,0,0,0,750.5-72.8h2.232l-6.107,6.107a1.643,1.643,0,0,0,0,2.324,1.638,1.638,0,0,0,1.162.481,1.639,1.639,0,0,0,1.163-.481l6.106-6.105v2.23A1.645,1.645,0,0,0,756.7-66.6a1.644,1.644,0,0,0,1.644-1.644v-6.2A1.644,1.644,0,0,0,756.7-76.088Z" transform="translate(-719.73 95.02)" fill="#fff"/></g><g transform="matrix(1, 0, 0, 1, -18.94, -18.94)" filter="url(#d)"><circle cx="1.644" cy="1.644" r="1.644" transform="translate(22.16 32.11)" fill="#fff"/></g><g transform="matrix(1, 0, 0, 1, -18.94, -18.94)" filter="url(#f)"><path d="M747.793-71.954l-2.834-2.834a1.643,1.643,0,0,0-2.325,0L739.8-71.954a1.643,1.643,0,0,0,0,2.324,1.643,1.643,0,0,0,2.325,0l.029-.028v2.5a1.644,1.644,0,0,0,1.644,1.644,1.644,1.644,0,0,0,1.644-1.644v-2.5l.027.026a1.636,1.636,0,0,0,1.162.481,1.639,1.639,0,0,0,1.163-.481A1.643,1.643,0,0,0,747.793-71.954Z" transform="translate(-720.38 95.1)" fill="#fff"/></g><g transform="matrix(1, 0, 0, 1, -18.94, -18.94)" filter="url(#h)"><path d="M754-65.818a1.644,1.644,0,0,0-2.326,0,1.643,1.643,0,0,0,0,2.324l.028.028h-2.5a1.643,1.643,0,0,0-1.644,1.644,1.643,1.643,0,0,0,1.644,1.644h2.5l-.027.027a1.643,1.643,0,0,0,0,2.324,1.64,1.64,0,0,0,1.163.482A1.64,1.64,0,0,0,754-57.825l2.833-2.834a1.643,1.643,0,0,0,0-2.324Z" transform="translate(-719.59 95.96)" fill="#fff"/></g></g></g><path d="M13462,1385.305V1334l-47,51.305Z" transform="translate(-13406 -1333.5)" fill="url(#j)"/></g></svg>