<svg xmlns="http://www.w3.org/2000/svg" xmlns:xlink="http://www.w3.org/1999/xlink" width="56" height="56" viewBox="0 0 56 56"><defs><linearGradient id="a" x1="1" x2="0" y2="1" gradientUnits="objectBoundingBox"><stop offset="0" stop-color="#ffc868"/><stop offset="1" stop-color="#ff8065"/></linearGradient><filter id="b" x="16" y="16" width="20" height="22" filterUnits="userSpaceOnUse"><feOffset dy="2" input="SourceAlpha"/><feGaussianBlur result="c"/><feFlood flood-opacity="0.102"/><feComposite operator="in" in2="c"/><feComposite in="SourceGraphic"/></filter><filter id="d" x="19" y="19" width="25" height="27" filterUnits="userSpaceOnUse"><feOffset dy="2" input="SourceAlpha"/><feGaussianBlur result="e"/><feFlood flood-opacity="0.102"/><feComposite operator="in" in2="e"/><feComposite in="SourceGraphic"/></filter><linearGradient id="f" x1="0.5" x2="0.5" y2="1" gradientUnits="objectBoundingBox"><stop offset="0" stop-opacity="0.2"/><stop offset="1" stop-color="#fff" stop-opacity="0"/></linearGradient></defs><path d="M8,0H56a0,0,0,0,1,0,0V56a0,0,0,0,1,0,0H8a8,8,0,0,1-8-8V8A8,8,0,0,1,8,0Z" fill="url(#a)"/><g transform="translate(11 11)"><rect width="35" height="35" fill="none"/><g transform="translate(5 5)"><g transform="translate(0 0)"><g transform="matrix(1, 0, 0, 1, -16, -16)" filter="url(#b)"><rect width="20" height="20" transform="translate(16 16)" fill="#fff"/></g><g transform="matrix(1, 0, 0, 1, -16, -16)" filter="url(#d)"><path d="M0,25V21.8H21.795V0H25V25Z" transform="translate(19 19)" fill="#fff"/></g></g></g></g><path d="M13471,1390v-56l-56,56Z" transform="translate(-13414.999 -1334)" fill="url(#f)"/></svg>