<svg xmlns="http://www.w3.org/2000/svg" xmlns:xlink="http://www.w3.org/1999/xlink" width="56" height="56" viewBox="0 0 56 56"><defs><linearGradient id="a" x1="1" x2="0" y2="1" gradientUnits="objectBoundingBox"><stop offset="0" stop-color="#ff6868"/><stop offset="1" stop-color="#ff2929"/></linearGradient><filter id="b" x="16.706" y="18" width="22.587" height="22" filterUnits="userSpaceOnUse"><feOffset dy="2" input="SourceAlpha"/><feGaussianBlur result="c"/><feFlood flood-opacity="0.161"/><feComposite operator="in" in2="c"/><feComposite in="SourceGraphic"/></filter><linearGradient id="d" x1="0.5" x2="0.5" y2="1" gradientUnits="objectBoundingBox"><stop offset="0" stop-opacity="0.2"/><stop offset="1" stop-color="#fff" stop-opacity="0"/></linearGradient></defs><path d="M8,0H56a0,0,0,0,1,0,0V56a0,0,0,0,1,0,0H8a8,8,0,0,1-8-8V8A8,8,0,0,1,8,0Z" fill="url(#a)"/><g transform="translate(14 14)"><rect width="28" height="28" fill="none"/><g transform="matrix(1, 0, 0, 1, -14, -14)" filter="url(#b)"><path d="M-543.36,97.057-552,82.371a2.606,2.606,0,0,0-.938-.949,2.658,2.658,0,0,0-3.638.949l-8.63,14.686a2.567,2.567,0,0,0-.373,1.344,2.652,2.652,0,0,0,2.655,2.655h17.272a2.665,2.665,0,0,0,1.344-.361A2.658,2.658,0,0,0-543.36,97.057Zm-9.907-9.376-.271,6.1h-1.514l-.282-6.1Zm-1.028,9.173a1.1,1.1,0,0,1-1.084-1.084,1.1,1.1,0,0,1,1.084-1.1,1.1,1.1,0,0,1,1.1,1.1A1.109,1.109,0,0,1-554.295,96.853Z" transform="translate(582.29 -63.06)" fill="#fff"/></g></g><path d="M13471,1390v-56l-56,56Z" transform="translate(-13415 -1334)" fill="url(#d)"/></svg>