<svg xmlns="http://www.w3.org/2000/svg" width="24.092" height="24.56" viewBox="0 0 24.092 24.56"><g transform="translate(0 0.56)"><rect width="24" height="24" fill="none"/><g transform="translate(-0.45 -0.631)"><path d="M3546,594V583" transform="translate(-2076.358 -2913.831) rotate(45)" fill="none" stroke="#4aabff" stroke-linecap="round" stroke-width="3"/><path d="M3541,586l4-4,4,4" transform="translate(-2076.005 -2912.771) rotate(45)" fill="none" stroke="#4aabff" stroke-linecap="round" stroke-linejoin="round" stroke-width="3"/><circle cx="1.5" cy="1.5" r="1.5" transform="translate(7.132 15.359) rotate(45)" fill="#4aabff"/><path d="M3541,584.586l2.586-2.586,2.586,2.586" transform="translate(-3536.808 -575.723)" fill="none" stroke="#4aabff" stroke-linecap="round" stroke-linejoin="round" stroke-width="3"/><path d="M3538,592l4,4" transform="translate(-2076.358 -2913.831) rotate(45)" fill="none" stroke="#4aabff" stroke-linecap="round" stroke-width="3"/><path d="M0,0,2.586,2.586,5.172,0" transform="translate(15.749 20.419) rotate(-90)" fill="none" stroke="#4aabff" stroke-linecap="round" stroke-linejoin="round" stroke-width="3"/><path d="M3542,592l-4,4" transform="translate(-2067.873 -2905.346) rotate(45)" fill="none" stroke="#4aabff" stroke-linecap="round" stroke-width="3"/></g></g></svg>