<svg xmlns="http://www.w3.org/2000/svg" width="24" height="24" viewBox="0 0 24 24"><rect width="24" height="24" fill="none"/><g transform="translate(1.02 4)"><g transform="translate(15 4.113)"><g transform="translate(0 2.887)"><path d="M1434.53-2038.13a1,1,0,0,1-1,1h-5.96v-2h5.96A1,1,0,0,1,1434.53-2038.13Z" transform="translate(-1427.57 2039.13)" fill="#ff8065"/></g><path d="M1429.685-2042.017l3.889,3.889-3.889,3.889" transform="translate(-1427.57 2042.017)" fill="none" stroke="#ff8065" stroke-linecap="round" stroke-linejoin="round" stroke-width="2"/></g><path d="M1420.52-2038.13a1,1,0,0,0,1,1h6.05v5a1.993,1.993,0,0,1-2,2h-11a2,2,0,0,1-2-2v-12a2.006,2.006,0,0,1,2-2h11a2,2,0,0,1,2,2v5h-6.05A1,1,0,0,0,1420.52-2038.13Z" transform="translate(-1412.57 2046.13)" fill="#ff8065"/></g></svg>