<svg xmlns="http://www.w3.org/2000/svg" width="24" height="24" viewBox="0 0 24 24"><rect width="24" height="24" fill="none"/><path d="M770-79.354H752.1c0-2.131,1.3-2.64,1.3-2.64.087-.068,1.584-.883,2.735-1.511.745-.4,1.35-.73,1.35-.73a1.472,1.472,0,0,0,.77-1.265v-1.469a7.643,7.643,0,0,1-.865-1.35,7.726,7.726,0,0,1-.615-1.63v-.008a1.173,1.173,0,0,1-.562-1v-1.6a1.163,1.163,0,0,1,.121-.509,1.082,1.082,0,0,1,.13-.212,1.453,1.453,0,0,1,.156-.17v-2.309s-.511-3.591,4.457-3.591,4.483,3.591,4.483,3.591v2.292a1.239,1.239,0,0,1,.147.153l.138.2c.017.051.043.1.061.153a1.173,1.173,0,0,1,.061.382v1.6a1.172,1.172,0,0,1-.528.985c-.017.008-.026.025-.043.025a1.1,1.1,0,0,1-.286.136,7.85,7.85,0,0,1-.528,1.282,8.687,8.687,0,0,1-.675,1.112,4.845,4.845,0,0,1-.364.467v1.5a1.475,1.475,0,0,0,.831,1.3l1.316.654c1.238.611,2.925,1.452,3.012,1.52a.026.026,0,0,1,.017.008C768.86-81.926,770-81.349,770-79.354Z" transform="translate(-749.103 101.354)" fill="#ff8065"/></svg>