<svg xmlns="http://www.w3.org/2000/svg" width="24" height="24" viewBox="0 0 24 24"><rect width="24" height="24" fill="none"/><path d="M19.975,8.916c0-.267-.334-.468-.668-.468a2.27,2.27,0,0,1-2.07-1.4,2.2,2.2,0,0,1,.6-2.471A.6.6,0,0,0,17.9,3.84a9.082,9.082,0,0,0-1.6-1.6.6.6,0,0,0-.8.067,2.137,2.137,0,0,1-2.471.534A2.137,2.137,0,0,1,11.694.7.6.6,0,0,0,11.16.1h-2.2a.534.534,0,0,0-.534.534A2.137,2.137,0,0,1,7.087,2.771a2.137,2.137,0,0,1-2.471-.534.6.6,0,0,0-.8-.067,9.082,9.082,0,0,0-1.6,1.6.534.534,0,0,0,.067.735,2.271,2.271,0,0,1,.534,2.538A2.337,2.337,0,0,1,.676,8.382a.6.6,0,0,0-.6.534,12.891,12.891,0,0,0,0,2.271c0,.267.334.468.668.468a2.337,2.337,0,0,1,2.07,1.4,2.2,2.2,0,0,1-.6,2.471.6.6,0,0,0-.067.735,9.082,9.082,0,0,0,1.6,1.6.534.534,0,0,0,.735-.067,2.27,2.27,0,0,1,2.538-.534A2.137,2.137,0,0,1,8.356,19.4a.6.6,0,0,0,.534.6h2.2a.534.534,0,0,0,.534-.534,2.195,2.195,0,0,1,3.806-1.6.6.6,0,0,0,.8.067,9.083,9.083,0,0,0,1.6-1.6.534.534,0,0,0-.067-.735,2.271,2.271,0,0,1-.534-2.538,2.2,2.2,0,0,1,2-1.336h.134a.6.6,0,0,0,.6-.534A12.891,12.891,0,0,0,19.975,8.916Zm-9.95,4.475a3.339,3.339,0,0,1-3.339-3.339,3.406,3.406,0,0,1,3.339-3.339,3.339,3.339,0,0,1,0,6.679Z" transform="translate(1.975 1.998)" fill="#ff8065"/></svg>