<svg xmlns="http://www.w3.org/2000/svg" width="24" height="24" viewBox="0 0 24 24"><rect width="24" height="24" fill="none"/><path d="M18.874,1.785A5.512,5.512,0,0,0,14.774,0a5.157,5.157,0,0,0-3.221,1.112,6.59,6.59,0,0,0-1.3,1.36,6.586,6.586,0,0,0-1.3-1.36A5.156,5.156,0,0,0,5.727,0a5.513,5.513,0,0,0-4.1,1.785A6.408,6.408,0,0,0,0,6.161a7.63,7.63,0,0,0,2.033,4.995,43.356,43.356,0,0,0,5.09,4.777c.705.6,1.5,1.282,2.335,2.008a1.2,1.2,0,0,0,1.585,0c.83-.726,1.63-1.407,2.335-2.009a43.331,43.331,0,0,0,5.089-4.777A7.629,7.629,0,0,0,20.5,6.161a6.407,6.407,0,0,0-1.626-4.376Zm0,0" transform="translate(1.75 2.881)" fill="#ff8065"/></svg>