<svg xmlns="http://www.w3.org/2000/svg" width="22" height="22" viewBox="0 0 22 22"><rect width="22" height="22" fill="none"/><g transform="translate(-18.334 2)"><g transform="translate(21.334)"><path d="M37.459,0A14.639,14.639,0,0,0,22.9,13.318a45.847,45.847,0,0,1,4.756-5.482.375.375,0,1,1,.535.525c-.292.3-.588.605-.886.917-.17.178-.337.355-.5.529l-.09.1a27.152,27.152,0,0,0-5.348,7.566.375.375,0,0,0,.685.308,20.583,20.583,0,0,1,1.534-2.792A14.614,14.614,0,0,0,36.09,7.3a.375.375,0,0,0-.331-.553H34.371l2.491-1.424a.376.376,0,0,0,.169-.2,14.573,14.573,0,0,0,.8-4.748A.375.375,0,0,0,37.459,0Z" transform="translate(-21.334)" fill="#b468ff"/></g></g></svg>