<svg xmlns="http://www.w3.org/2000/svg" width="20" height="20" viewBox="0 0 20 20"><rect width="20" height="20" fill="none"/><g transform="translate(2.727 1.818)"><path d="M35.993,0A13.309,13.309,0,0,0,22.758,12.108a41.679,41.679,0,0,1,4.323-4.983.341.341,0,1,1,.487.477c-.265.27-.535.55-.805.834-.155.162-.306.323-.455.481L26.226,9a24.684,24.684,0,0,0-4.862,6.878.341.341,0,0,0,.622.28,18.711,18.711,0,0,1,1.394-2.538A13.285,13.285,0,0,0,34.749,6.639a.341.341,0,0,0-.3-.5H33.185L35.45,4.842a.342.342,0,0,0,.153-.185A13.248,13.248,0,0,0,36.334.341.341.341,0,0,0,35.993,0Z" transform="translate(-21.334)" fill="#b468ff"/></g></svg>